<svg id="Capa_1" enable-background="new 0 0 512 512" height="512" viewBox="0 0 512 512" width="512" xmlns="http://www.w3.org/2000/svg"><g><g><g><g><path d="m7.502 263.558c.32 94.706 76.359 170.776 171.065 171.133 53.947.203 102.117-24.412 133.732-63.132 8.801-10.778 20.22-19.116 33.179-24.184l85.737-33.528c44.197-17.284 73.283-59.89 73.283-107.346v-52.424l-496.996 57.057z" fill="#eaac9d"/></g><g><path d="m415.002 164.351c-4.752 36.856-15.146 74.497-31.626 111.331-12.002 26.825-26.482 51.522-42.85 73.827 1.624-.764 3.275-1.478 4.954-2.134l85.737-33.528c44.197-17.284 73.283-59.89 73.283-107.346v-52.424z" fill="#df9380"/></g><g><path d="m179.228 38.814c-95.04 0-172.047 77.205-171.726 172.32.32 94.706 76.359 170.776 171.065 171.133 53.947.203 102.117-24.412 133.732-63.132 8.801-10.778 20.22-19.116 33.179-24.184l85.737-33.528c44.197-17.284 73.283-59.89 73.283-107.346 0-63.658-51.605-115.262-115.262-115.262h-210.008z" fill="#ffddce"/></g><g><path d="m409.006 40.509c17.33 71.277 10.181 155.136-25.63 235.173-.815 1.822-1.655 3.622-2.492 5.424l50.332-19.683c44.197-17.284 73.283-59.89 73.283-107.346 0-56.917-41.256-104.192-95.493-113.568z" fill="#ffcbbe"/></g><g><path d="m178.689 349.942c-37.213-.14-72.084-14.599-98.188-40.713s-40.549-60.99-40.674-98.204c-.126-37.332 14.314-72.451 40.661-98.888 26.348-26.438 61.415-40.997 98.74-40.997h210.008c45.732 0 82.938 37.205 82.938 82.938 0 16.754-4.993 32.925-14.44 46.762s-22.688 24.377-38.292 30.479l-85.737 33.529c-18.078 7.069-34.139 18.772-46.445 33.844-26.594 32.57-65.973 51.252-108.03 51.252-.002-.001-.541-.002-.541-.002z" fill="#dd636e"/></g><g><path d="m399.231 71.763c-5.357 61.706-28.5 126.417-69.928 184.899-3.954 5.581-8.029 11.007-12.192 16.31 5.291-3.149 10.839-5.874 16.595-8.124l85.737-33.529c15.604-6.102 28.845-16.642 38.292-30.479s14.44-30.008 14.44-46.762c-.001-42.349-31.91-77.361-72.944-82.315z" fill="#da4a54"/></g></g><g><circle cx="162.056" cy="188.317" fill="#e4f6ff" r="36.366"/></g></g><g><g><circle cx="256.001" cy="372.166" fill="#e28086" r="101.016"/></g><g><path d="m314.773 290.034c11.872 16.561 18.883 36.842 18.883 58.773 0 55.79-45.226 101.016-101.016 101.016-21.931 0-42.212-7.011-58.773-18.883 18.329 25.568 48.274 42.243 82.133 42.243 55.79 0 101.016-45.226 101.016-101.016 0-33.859-16.675-63.805-42.243-82.133z" fill="#dd636e"/></g><g><path d="m284.571 372.166 14.36-14.361c7.891-7.889 7.891-20.682 0-28.572-7.889-7.889-20.682-7.89-28.571.001l-14.36 14.361-14.36-14.36c-7.891-7.891-20.682-7.889-28.572-.001-7.89 7.89-7.89 20.682-.001 28.572l14.36 14.36-14.36 14.36c-7.889 7.889-7.889 20.682.001 28.572 3.945 3.945 9.115 5.917 14.286 5.917 5.17 0 10.341-1.972 14.286-5.918l14.36-14.36 14.36 14.36c3.945 3.946 9.114 5.918 14.285 5.918 5.17 0 10.341-1.973 14.286-5.917 7.891-7.89 7.891-20.682 0-28.572z" fill="#e4f6ff"/></g></g><g><path d="m476.043 67.274c-23.188-23.187-54.015-35.956-86.803-35.956h-40.28c-4.142 0-7.5 3.357-7.5 7.5s3.358 7.5 7.5 7.5h40.28c28.782 0 55.842 11.209 76.197 31.562 20.354 20.355 31.563 47.416 31.563 76.198 0 44.688-26.892 84.08-68.511 100.354l-85.733 33.528c-4.081 1.591-8.06 3.511-11.892 5.719-4.421-4.219-9.197-8.069-14.277-11.5 6.237-4.139 12.876-7.615 19.856-10.347l85.728-33.528c17.016-6.649 31.458-18.143 41.766-33.239 10.293-15.091 15.734-32.722 15.734-50.986 0-49.868-40.566-90.439-90.43-90.439h-210.01c-39.333 0-76.286 15.344-104.051 43.205-27.769 27.853-42.985 64.862-42.848 104.208.115 37.146 13.974 72.472 39.022 99.468 1.478 1.593 3.486 2.398 5.5 2.398 1.825 0 3.656-.662 5.1-2.002 3.036-2.817 3.214-7.562.396-10.6-22.479-24.226-34.915-55.943-35.018-89.314-.124-35.331 13.539-68.561 38.472-93.569 24.931-25.017 58.111-38.794 93.427-38.794h210.01c41.592 0 75.43 33.842 75.43 75.439 0 15.236-4.539 29.944-13.124 42.53-8.597 12.591-20.644 22.178-34.838 27.726l-85.731 33.529c-10.296 4.03-19.958 9.445-28.787 16.123-14.023-6.624-29.68-10.336-46.189-10.336-48.552 0-89.758 32.052-103.572 76.108-16.007-3.234-31.042-9.334-44.774-18.185-3.481-2.242-8.124-1.241-10.367 2.242-2.244 3.481-1.24 8.123 2.241 10.367 15.175 9.779 31.769 16.549 49.426 20.18-.938 5.658-1.44 11.46-1.463 17.375-77.021-14.8-132.207-80.962-132.489-160.591v-.007c0-.001 0-.002 0-.003 0-.008 0-.016 0-.023-.148-43.979 16.864-85.353 47.903-116.495 31.041-31.146 72.353-48.299 116.326-48.299h134.73c4.142 0 7.5-3.357 7.5-7.5s-3.358-7.5-7.5-7.5h-134.73c-47.989 0-93.075 18.72-126.951 52.71-33.876 33.986-52.442 79.137-52.281 127.133v.034 52.386c.162 47.452 18.515 92.048 51.679 125.57 32.333 32.684 75.327 51.391 121.395 52.921 19.921 23.593 49.7 38.607 82.925 38.607 59.836 0 108.516-48.68 108.516-108.516 0-7.961-.87-15.722-2.505-23.199l31.7-12.393c3.858-1.509 5.762-5.858 4.254-9.716-1.508-3.857-5.858-5.764-9.716-4.255l-30.472 11.913c-3.971-10.7-9.581-20.61-16.528-29.421 2.273-1.177 4.596-2.239 6.963-3.162l85.74-33.529c23.093-9.031 42.691-24.631 56.674-45.113 2.224-3.258 4.263-6.613 6.15-10.035-2.562 41.864-28.781 78.151-68.289 93.609l-7.64 2.99c-3.857 1.51-5.76 5.86-4.25 9.718 1.158 2.96 3.989 4.769 6.986 4.769.909 0 1.834-.166 2.731-.518l7.64-2.99c23.094-9.036 42.691-24.637 56.672-45.117 13.983-20.484 21.374-44.418 21.374-69.218v-52.42c0-32.788-12.77-63.616-35.957-86.804zm-459.457 218.849c7.159 15.488 16.534 29.971 27.954 42.949 27.032 30.721 63.777 51.196 103.986 58.09 1.956 14.085 6.619 27.315 13.455 39.141-75.772-7.685-135.131-65.438-145.395-140.18zm239.415 179.559c-51.564 0-93.516-41.951-93.516-93.516s41.951-93.516 93.516-93.516 93.516 41.951 93.516 93.516-41.952 93.516-93.516 93.516z"/><path d="m205.921 188.317c0-24.188-19.678-43.865-43.866-43.865s-43.866 19.678-43.866 43.865 19.678 43.866 43.866 43.866 43.866-19.678 43.866-43.866zm-72.731 0c0-15.916 12.949-28.865 28.866-28.865s28.866 12.949 28.866 28.865c0 15.917-12.949 28.866-28.866 28.866s-28.866-12.949-28.866-28.866z"/><path d="m312.35 343.521c0-7.4-2.882-14.357-8.115-19.59-5.232-5.232-12.189-8.113-19.589-8.114-7.4 0-14.356 2.883-19.588 8.114l-9.057 9.058-9.057-9.058c-10.8-10.8-28.376-10.799-39.178 0-10.801 10.802-10.802 28.377 0 39.179l9.057 9.057-9.057 9.058c-10.801 10.801-10.8 28.376 0 39.179 5.233 5.231 12.189 8.113 19.589 8.113s14.356-2.882 19.589-8.115l9.057-9.057 9.056 9.056c5.231 5.234 12.188 8.116 19.59 8.116 7.399 0 14.356-2.882 19.588-8.113 5.233-5.232 8.115-12.189 8.115-19.59s-2.882-14.357-8.114-19.588l-9.058-9.059 9.057-9.057c5.233-5.233 8.115-12.19 8.115-19.589zm-18.722 8.981-14.36 14.36c-2.929 2.93-2.929 7.678 0 10.606l14.361 14.362c2.399 2.398 3.721 5.589 3.721 8.981 0 3.394-1.321 6.583-3.721 8.982s-5.59 3.721-8.983 3.721c-3.394 0-6.583-1.321-8.982-3.722l-14.36-14.36c-1.406-1.406-3.314-2.196-5.303-2.196s-3.897.79-5.303 2.197l-14.36 14.359c-2.4 2.4-5.59 3.722-8.983 3.722s-6.583-1.321-8.982-3.72c-4.953-4.954-4.954-13.014-.001-17.966l14.36-14.36c2.929-2.93 2.929-7.678 0-10.607l-14.36-14.359c-4.953-4.953-4.953-13.013 0-17.965 4.954-4.953 13.013-4.952 17.965-.001l14.36 14.36c1.406 1.407 3.314 2.197 5.303 2.197s3.897-.79 5.303-2.196l14.361-14.361c2.399-2.399 5.588-3.721 8.981-3.721s6.583 1.322 8.983 3.722c2.399 2.399 3.721 5.589 3.721 8.982.001 3.394-1.321 6.584-3.721 8.983z"/></g></g></svg>