<svg id="Capa_1" enable-background="new 0 0 512 512" height="512" viewBox="0 0 512 512" width="512" xmlns="http://www.w3.org/2000/svg"><g><g><g><path d="m306.003 360.047h-33.335v-50.508h-74.752v50.508h-33.336c-50.211 0-90.915 40.704-90.915 90.915v53.538h323.252v-53.539c0-50.21-40.704-90.914-90.914-90.914z" fill="#ffddce"/></g><g><path d="m332.245 363.898c18.023 16.613 29.316 40.416 29.316 66.86v73.742h35.356v-53.539c0-41.086-27.256-75.8-64.672-87.063z" fill="#ffcbbe"/></g><g><path d="m197.915 335.511c11.707 4.109 24.283 6.352 37.376 6.352s25.67-2.243 37.376-6.352v-25.973h-74.752z" fill="#ffcbbe"/></g><g><path d="m154.478 144.094v94.733c0 44.632 36.181 80.813 80.813 80.813s80.813-36.181 80.813-80.813v-94.733z" fill="#ffddce"/></g><g><path d="m293.881 144.094v105.53c0 27.56-13.806 51.885-34.87 66.471 33.056-10.136 57.093-40.892 57.093-77.268v-94.733z" fill="#ffcbbe"/></g><g><path d="m348.429 152.963v56.569l-32.325 16.163-45.457-71.499-24.172 19.876c-7.231 5.946-16.302 9.196-25.663 9.196h-32.998l-33.335 42.427-32.325-16.163v-56.569c0-62.484 50.654-113.138 113.138-113.138 62.484 0 113.137 50.654 113.137 113.138z" fill="#30579d"/></g><g><path d="m280.224 49.107c22.077 20.647 35.88 50.031 35.88 82.643v61.62h32.325v-40.407c0-46.517-28.077-86.471-68.205-103.856z" fill="#26457d"/></g><g><path d="m332.267 225.695h-16.163v-48.488h16.163c8.926 0 16.163 7.236 16.163 16.163v16.163c-.001 8.926-7.237 16.162-16.163 16.162z" fill="#ffddce"/></g><g><path d="m138.316 225.695h16.163v-48.488h-16.163c-8.926 0-16.163 7.236-16.163 16.163v16.163c0 8.926 7.236 16.162 16.163 16.162z" fill="#ffddce"/></g></g><g><g><path d="m396.917 504.5 38.464-21.724c21.798-12.311 35.278-35.407 35.278-60.441v-61.71c0-10.621-7.23-19.877-17.535-22.45l-56.207-14.03-56.207 14.03c-10.304 2.572-17.535 11.829-17.535 22.45v61.71c0 25.035 13.48 48.13 35.278 60.441z" fill="#90d8f9"/></g><g><path d="m453.124 338.175-5.769-1.44v60.71c0 27.633-14.879 53.125-38.94 66.715l-41.462 23.418 29.964 16.923 38.464-21.724c21.798-12.311 35.278-35.407 35.278-60.441v-61.71c0-10.622-7.23-19.879-17.535-22.451z" fill="#6bbef6"/></g><g><path d="m437.324 394.119h-24.244v-24.244h-32.325v24.244h-24.244v32.325h24.244v24.244h32.325v-24.244h24.244z" fill="#e4f6ff"/></g></g><g><path d="m41.34 491c-4.143 0-7.5 3.357-7.5 7.5v6c0 4.143 3.357 7.5 7.5 7.5s7.5-3.357 7.5-7.5v-6c0-4.143-3.357-7.5-7.5-7.5z"/><path d="m67.528 374.722c1.429 1.272 3.209 1.897 4.982 1.897 2.066 0 4.124-.85 5.605-2.515 2.277-2.559 4.693-5.043 7.181-7.385 3.016-2.839 3.159-7.585.32-10.602-2.839-3.016-7.586-3.158-10.602-.32-2.808 2.643-5.535 5.447-8.104 8.335-2.753 3.095-2.477 7.837.618 10.59z"/><path d="m54.846 394.396c-3.787-1.674-8.217.035-9.894 3.823-1.564 3.535-2.986 7.183-4.227 10.841-1.33 3.923.771 8.181 4.694 9.511.798.271 1.61.399 2.409.399 3.125 0 6.043-1.969 7.102-5.094 1.097-3.234 2.354-6.46 3.738-9.587 1.677-3.787-.034-8.217-3.822-9.893z"/><path d="m119.166 328.353c-3.623 1.347-7.226 2.873-10.709 4.535-3.738 1.783-5.323 6.26-3.539 9.998 1.286 2.696 3.973 4.272 6.773 4.272 1.083 0 2.183-.235 3.225-.733 3.083-1.471 6.271-2.82 9.477-4.012 3.883-1.443 5.86-5.762 4.417-9.644-1.443-3.881-5.764-5.861-9.644-4.416z"/><path d="m41.462 441.648c-.037-.001-.074-.001-.111-.001-4.091 0-7.438 3.286-7.497 7.391-.01.64-.014 1.281-.014 1.923v9.153c0 4.143 3.357 7.5 7.5 7.5s7.5-3.357 7.5-7.5v-9.153c0-.569.004-1.137.012-1.704.061-4.142-3.248-7.548-7.39-7.609z"/><path d="m159.614 335.327c1.632-.07 3.303-.105 4.966-.105h.713c3.197 0 6.042-2.026 7.088-5.047 1.045-3.021.061-6.373-2.452-8.349-1.466-1.152-2.918-2.357-4.316-3.58-3.119-2.728-7.857-2.411-10.583.708-1.147 1.312-1.756 2.911-1.844 4.526-.938 1.312-1.46 2.938-1.386 4.675.173 4.029 3.493 7.179 7.487 7.179.108 0 .217-.002.327-.007z"/><path d="m137.563 303.409c1.284 0 2.587-.33 3.775-1.024 3.577-2.09 4.783-6.683 2.694-10.259-1.63-2.79-3.146-5.687-4.509-8.608-1.75-3.754-6.214-5.378-9.967-3.629-3.754 1.75-5.379 6.213-3.629 9.967 1.557 3.339 3.29 6.648 5.151 9.835 1.396 2.387 3.906 3.718 6.485 3.718z"/><path d="m129.85 245.323c-.24-3.938-3.49-7.017-7.435-7.044l-5.999-.041c-.019 0-.035 0-.053 0-4.118 0-7.471 3.324-7.499 7.448-.026 3.876 2.891 7.084 6.658 7.505.684 3.526 3.785 6.066 7.353 6.066.283 0 .57-.017.858-.049 4.115-.469 7.072-4.186 6.604-8.301-.21-1.84-.374-3.719-.487-5.584z"/><path d="m89.776 253.056 6 .041h.053c4.118 0 7.471-3.324 7.499-7.448.025-3.688-2.615-6.772-6.118-7.425-.628-3.507-3.694-6.168-7.382-6.168-4.143 0-7.5 3.357-7.5 7.5v6c0 4.122 3.327 7.471 7.448 7.5z"/><path d="m229.262 15.123c.104 0 .208-.002.312-.006 3.713-.154 7.529-.156 11.277-.007 4.124.146 7.628-3.059 7.792-7.196.164-4.14-3.058-7.628-7.196-7.792-4.149-.166-8.374-.161-12.488.007-4.139.17-7.356 3.663-7.187 7.802.167 4.034 3.489 7.192 7.49 7.192z"/><path d="m360.852 95.808c1.26 2.757 3.98 4.385 6.826 4.385 1.042 0 2.103-.219 3.112-.681 3.768-1.722 5.426-6.171 3.704-9.938-1.723-3.771-3.625-7.518-5.653-11.139-2.024-3.613-6.594-4.898-10.209-2.877-3.613 2.024-4.901 6.595-2.877 10.209 1.829 3.264 3.543 6.643 5.097 10.041z"/><path d="m323.493 46.957c2.875 2.397 5.688 4.942 8.362 7.564 1.46 1.433 3.356 2.146 5.252 2.146 1.942 0 3.886-.751 5.354-2.248 2.901-2.957 2.855-7.705-.102-10.605-2.961-2.905-6.077-5.725-9.263-8.379-3.181-2.651-7.909-2.223-10.562.959s-2.223 7.911.959 10.563z"/><path d="m133.372 56.769c1.898 0 3.798-.716 5.258-2.151 2.666-2.621 5.477-5.169 8.354-7.572 3.18-2.655 3.604-7.385.948-10.564-2.655-3.178-7.386-3.603-10.563-.947-3.188 2.661-6.3 5.483-9.254 8.387s-2.994 7.652-.091 10.606c1.468 1.492 3.407 2.241 5.348 2.241z"/><path d="m279.5 22.262c3.548 1.203 7.086 2.568 10.516 4.058.973.422 1.985.622 2.982.622 2.897 0 5.656-1.688 6.884-4.516 1.649-3.799-.094-8.217-3.894-9.866-3.807-1.652-7.733-3.168-11.67-4.503-3.924-1.327-8.181.771-9.512 4.693-1.33 3.924.771 8.181 4.694 9.512z"/><path d="m177.45 27.001c.999 0 2.015-.201 2.989-.625 3.424-1.49 6.955-2.857 10.497-4.063 3.921-1.336 6.017-5.597 4.682-9.518s-5.599-6.014-9.518-4.682c-3.93 1.339-7.848 2.855-11.647 4.509-3.798 1.653-5.537 6.072-3.884 9.87 1.228 2.823 3.986 4.509 6.881 4.509z"/><path d="m89.641 151.944c.147.009.293.013.439.013 3.943 0 7.25-3.079 7.48-7.067.217-3.743.59-7.515 1.108-11.211.576-4.102-2.281-7.894-6.384-8.47-4.092-.572-7.894 2.281-8.47 6.384-.576 4.099-.989 8.281-1.229 12.432-.238 4.134 2.92 7.68 7.056 7.919z"/><path d="m99.732 99.658c1.009.46 2.066.678 3.106.678 2.848 0 5.571-1.631 6.829-4.391 1.554-3.408 3.267-6.792 5.092-10.058 2.021-3.616.728-8.186-2.888-10.206-3.618-2.023-8.187-.728-10.206 2.888-2.024 3.622-3.924 7.375-5.646 11.153-1.719 3.77-.056 8.218 3.713 9.936z"/><path d="m89.828 205.446c4.143 0 7.5-3.357 7.5-7.5v-11.889c0-4.143-3.357-7.5-7.5-7.5s-7.5 3.357-7.5 7.5v11.889c0 4.143 3.357 7.5 7.5 7.5z"/><path d="m388.254 185.898c0-4.143-3.357-7.5-7.5-7.5s-7.5 3.357-7.5 7.5v11.889c0 4.143 3.357 7.5 7.5 7.5s7.5-3.357 7.5-7.5z"/><path d="m371.89 133.526c.523 3.7.9 7.473 1.121 11.212.235 3.984 3.54 7.058 7.48 7.058.148 0 .299-.004.449-.013 4.135-.244 7.289-3.795 7.045-7.93-.245-4.145-.663-8.326-1.244-12.429-.58-4.101-4.373-6.954-8.477-6.375-4.099.581-6.954 4.376-6.374 8.477z"/><path d="m380.754 232.056c-3.688 0-6.754 2.661-7.382 6.168-3.503.652-6.144 3.737-6.118 7.425.028 4.124 3.381 7.448 7.499 7.448h.053l6-.041c4.121-.028 7.448-3.378 7.448-7.5v-6c0-4.143-3.357-7.5-7.5-7.5z"/><path d="m355.059 253.191c3.768-.42 6.686-3.629 6.659-7.504-.028-4.125-3.381-7.449-7.499-7.449-.018 0-.035 0-.053 0l-6 .041c-3.944.027-7.194 3.106-7.435 7.044-.113 1.865-.277 3.744-.487 5.585-.469 4.115 2.488 7.832 6.604 8.301.288.032.574.049.858.049 3.567 0 6.67-2.54 7.353-6.067z"/><path d="m335.236 292.475c1.006.456 2.059.672 3.095.672 2.853 0 5.579-1.636 6.835-4.402 1.147-2.529 2.22-5.13 3.189-7.729 1.446-3.882-.528-8.201-4.409-9.647-3.883-1.445-8.201.528-9.647 4.409-.848 2.277-1.788 4.555-2.793 6.769-1.712 3.77-.042 8.216 3.73 9.928z"/><path d="m328.731 303.139c-3.248-2.574-7.966-2.026-10.536 1.22-1.159 1.462-2.368 2.908-3.595 4.299-2.74 3.106-2.444 7.846.662 10.586 1.426 1.258 3.196 1.876 4.959 1.876 2.077 0 4.145-.858 5.627-2.538 1.4-1.588 2.781-3.238 4.103-4.906 2.573-3.248 2.026-7.965-1.22-10.537z"/><path d="m217.097 423.853c1.519 0 2.979.556 4.113 1.563 4.015 3.568 9.047 5.353 14.081 5.352 5.032 0 10.066-1.784 14.078-5.351 1.136-1.009 2.597-1.564 4.115-1.564h32.314c4.143 0 7.5-3.357 7.5-7.5s-3.357-7.5-7.5-7.5h-32.314c-5.195 0-10.194 1.9-14.08 5.353-2.345 2.087-5.884 2.085-8.229 0-3.883-3.451-8.883-5.353-14.079-5.353h-32.314c-4.143 0-7.5 3.357-7.5 7.5s3.357 7.5 7.5 7.5z"/><path d="m470.66 384.95c4.143 0 7.5-3.357 7.5-7.5v-16.83c0-14.081-9.548-26.305-23.224-29.727l-56.2-14.03c-1.191-.299-2.439-.299-3.633 0l-56.216 14.031c-11.171 2.798-19.58 11.48-22.28 22.247-3.518-.379-7.062-.592-10.608-.592h-25.83v-37.692c25.977-15.392 43.435-43.709 43.435-76.031v-5.632h8.663c13.047 0 23.662-10.615 23.662-23.663v-56.571c0-1.879-.039-3.56-.119-5.14-.21-4.136-3.712-7.321-7.87-7.11-4.137.21-7.32 3.733-7.11 7.87.067 1.324.1 2.757.1 4.38v18.396c-2.685-1.06-5.605-1.649-8.662-1.649h-16.163c-4.143 0-7.5 3.357-7.5 7.5v22.713l-31.628-49.747c-1.152-1.813-3.026-3.045-5.147-3.383-2.125-.337-4.286.249-5.945 1.613l-24.172 19.876c-5.873 4.829-13.296 7.489-20.899 7.489h-32.998c-2.302 0-4.476 1.057-5.897 2.866l-19.938 25.376v-26.803c0-4.143-3.357-7.5-7.5-7.5h-16.162c-3.059 0-5.98.59-8.666 1.651v-18.398c0-58.244 47.39-105.63 105.64-105.63 28.222 0 54.749 10.985 74.696 30.934 10.801 10.801 19.274 24.041 24.503 38.29 1.427 3.888 5.732 5.882 9.625 4.457 3.889-1.427 5.884-5.736 4.457-9.625-5.974-16.278-15.648-31.399-27.978-43.73-22.781-22.78-53.076-35.326-85.304-35.326-66.521 0-120.64 54.114-120.64 120.63l.003 56.572c0 13.048 10.615 23.663 23.663 23.663h8.662v5.632c0 32.325 17.46 60.644 43.441 76.035v37.688h-25.84c-49.78 0-91.78 37.216-97.696 86.567-.493 4.112 2.441 7.847 6.554 8.339.303.037.604.055.902.055 3.743 0 6.98-2.799 7.437-6.608 5.014-41.817 40.611-73.353 82.804-73.353h33.34c4.143 0 7.5-3.357 7.5-7.5v-38.114c9.335 3.366 19.392 5.205 29.872 5.205 10.482 0 20.542-1.84 29.878-5.207v38.116c0 4.143 3.357 7.5 7.5 7.5h33.328c3.239 0 6.474.21 9.68.583v54.198c0 27.685 14.975 53.35 39.083 66.981l13.617 7.688h-221.554v-12.703c0-4.143-3.357-7.5-7.5-7.5s-7.5 3.357-7.5 7.5v12.703h-50.657v-22c0-4.143-3.357-7.5-7.5-7.5s-7.5 3.357-7.5 7.5v29.5c0 4.143 3.357 7.5 7.5 7.5h323.25c1.271 0 2.544-.323 3.688-.97l38.462-21.721c24.111-13.627 39.09-39.292 39.09-66.98v-9.88c0-4.143-3.357-7.5-7.5-7.5s-7.5 3.357-7.5 7.5v9.88c0 22.289-12.059 42.95-31.469 53.92l-34.771 19.637-34.778-19.635c-19.406-10.973-31.462-31.635-31.462-53.922v-61.71c0-7.187 4.874-13.427 11.847-15.174l54.394-13.576 54.379 13.575c6.984 1.748 11.861 7.988 11.861 15.175v16.83c0 4.144 3.357 7.501 7.5 7.501zm-147.056-200.243h8.663c4.776 0 8.662 3.887 8.662 8.663v16.162c0 4.776-3.886 8.663-8.662 8.663h-8.663zm-193.951 24.825v-16.162c0-4.776 3.887-8.663 8.663-8.663h8.662v33.488h-8.662c-4.776 0-8.663-3.887-8.663-8.663zm32.325 29.295v-10.538l29.481-37.521h29.353c11.07 0 21.876-3.872 30.427-10.903l17.626-14.493 39.739 62.505v10.95c0 40.425-32.888 73.313-73.313 73.313s-73.313-32.888-73.313-73.313z"/><path d="m380.754 458.188h32.325c4.143 0 7.5-3.357 7.5-7.5v-16.744h16.744c4.143 0 7.5-3.357 7.5-7.5v-32.325c0-4.143-3.357-7.5-7.5-7.5h-16.743v-16.744c0-4.143-3.357-7.5-7.5-7.5h-32.325c-4.143 0-7.5 3.357-7.5 7.5v16.744h-16.745c-4.143 0-7.5 3.357-7.5 7.5v32.325c0 4.143 3.357 7.5 7.5 7.5h16.744v16.744c0 4.143 3.358 7.5 7.5 7.5zm-16.744-39.244v-17.325h16.744c4.143 0 7.5-3.357 7.5-7.5v-16.744h17.325v16.744c0 4.143 3.357 7.5 7.5 7.5h16.744v17.325h-16.743c-4.143 0-7.5 3.357-7.5 7.5v16.744h-17.325v-16.744c0-4.143-3.357-7.5-7.5-7.5z"/></g></g></svg>