<svg id="Capa_1" enable-background="new 0 0 512 512" height="512" viewBox="0 0 512 512" width="512" xmlns="http://www.w3.org/2000/svg"><g><g><path d="m94.374 408.535v95.965h323.252v-95.965c0-50.211-40.704-90.915-90.915-90.915h-141.422c-50.211 0-90.915 40.704-90.915 90.915z" fill="#e28086"/></g><g><path d="m352.954 321.471c18.023 16.613 29.316 40.416 29.316 66.86v116.169h35.356v-95.965c0-41.086-27.257-75.801-64.672-87.064z" fill="#dd636e"/></g><g><path d="m256 387.321c38.434 0 69.701-31.268 69.701-69.701h-139.402c0 38.433 31.267 69.701 69.701 69.701z" fill="#e4f6ff"/></g><g><path d="m218.624 277.213v40.406c0 20.642 16.734 37.376 37.376 37.376 20.642 0 37.376-16.734 37.376-37.376v-40.406z" fill="#ffddce"/></g><g><path d="m218.624 303.186c11.707 4.109 24.283 6.352 37.376 6.352s25.669-2.243 37.376-6.352v-25.973h-74.752z" fill="#ffcbbe"/></g><g><path d="m175.187 111.769v94.733c0 44.632 36.181 80.813 80.813 80.813s80.813-36.181 80.813-80.813v-94.733z" fill="#ffddce"/></g><g><path d="m303.478 209.533h-94.955v62.349c13.331 9.698 29.731 15.433 47.478 15.433s34.146-5.735 47.478-15.433v-62.349z" fill="#95d6a4"/></g><g><path d="m314.589 111.769v105.53c0 27.56-13.806 51.885-34.87 66.471 33.056-10.136 57.093-40.892 57.093-77.268v-94.733z" fill="#ffcbbe"/></g><g><path d="m369.138 120.638v56.569l-32.325 16.163-45.457-71.499-24.172 19.876c-7.231 5.946-16.302 9.196-25.663 9.196h-32.998l-33.335 42.427-32.325-16.163v-56.569c-.001-62.484 50.652-113.138 113.137-113.138 62.485 0 113.138 50.654 113.138 113.138z" fill="#30579d"/></g><g><path d="m300.933 16.782c22.077 20.647 35.88 50.031 35.88 82.643v61.62h32.325v-40.407c0-46.517-28.077-86.471-68.205-103.856z" fill="#26457d"/></g><g><path d="m352.976 193.37h-16.163v-48.488h16.163c8.926 0 16.163 7.236 16.163 16.163v16.163c-.001 8.926-7.237 16.162-16.163 16.162z" fill="#ffddce"/></g><g><path d="m159.024 193.37h16.163v-48.488h-16.163c-8.926 0-16.163 7.236-16.163 16.163v16.163c.001 8.926 7.237 16.162 16.163 16.162z" fill="#ffddce"/></g><g><path d="m417.63 453.61c-4.143 0-7.5 3.357-7.5 7.5v35.89h-50.664v-43.008c0-4.143-3.357-7.5-7.5-7.5s-7.5 3.357-7.5 7.5v43.008h-176.931v-43.008c0-4.143-3.358-7.5-7.5-7.5s-7.5 3.357-7.5 7.5v43.008h-50.665v-35.89c0-4.143-3.358-7.5-7.5-7.5s-7.5 3.357-7.5 7.5v43.39c0 4.143 3.358 7.5 7.5 7.5h323.26c4.143 0 7.5-3.357 7.5-7.5v-43.39c0-4.142-3.358-7.5-7.5-7.5z"/><path d="m326.71 310.12h-25.834v-27.586c25.979-15.392 43.438-43.709 43.438-76.033v-5.632h8.662c13.048 0 23.663-10.615 23.663-23.663l.001-56.567c0-17.527-3.675-34.423-10.923-50.218-1.727-3.764-6.176-5.417-9.944-3.688-3.765 1.728-5.416 6.18-3.688 9.944 6.341 13.818 9.556 28.609 9.556 43.962v18.392c-2.685-1.061-5.606-1.65-8.664-1.65h-16.162c-4.143 0-7.5 3.357-7.5 7.5v22.713l-31.629-49.748c-1.152-1.812-3.026-3.044-5.147-3.382-2.124-.339-4.286.249-5.945 1.613l-24.172 19.876c-5.874 4.829-13.295 7.489-20.899 7.489h-32.998c-2.301 0-4.476 1.057-5.897 2.866l-19.938 25.375v-26.803c0-4.143-3.358-7.5-7.5-7.5h-16.163c-3.058 0-5.979.589-8.665 1.65v-18.39c-.002-58.25 47.388-105.64 105.638-105.64 28.214 0 54.742 10.989 74.696 30.943 1.153 1.152 2.293 2.349 3.39 3.557 2.784 3.069 7.528 3.297 10.594.514 3.067-2.784 3.298-7.527.514-10.594-1.259-1.387-2.567-2.761-3.891-4.084-22.787-22.787-53.082-35.336-85.303-35.336-66.521 0-120.64 54.119-120.64 120.64l.002 56.567c0 13.048 10.615 23.663 23.663 23.663h8.663v5.632c0 32.323 17.458 60.64 43.437 76.032v27.586h-25.835c-54.269 0-98.42 44.146-98.42 98.41v17.58c0 4.143 3.358 7.5 7.5 7.5s7.5-3.357 7.5-7.5v-17.58c0-43.938 34.161-80.025 77.318-83.163 3.899 38.945 36.858 69.454 76.812 69.454 39.955 0 72.914-30.509 76.812-69.454 43.157 3.138 77.318 39.225 77.318 83.163v17.58c0 4.143 3.357 7.5 7.5 7.5s7.5-3.357 7.5-7.5v-17.58c0-54.263-44.151-98.41-98.42-98.41zm-110.688-42.211v-50.877h79.955v50.877c-11.508 7.518-25.236 11.906-39.978 11.906-14.74 0-28.469-4.388-39.977-11.906zm94.956-12.984v-40.694l18.336-8.89v1.161c-.001 18.548-6.938 35.497-18.336 48.423zm33.335-102.543h8.662c4.776 0 8.663 3.887 8.663 8.663v16.162c0 4.776-3.887 8.663-8.663 8.663h-8.662zm-132.146 6.061h29.353c11.07 0 21.876-3.872 30.427-10.903l17.626-14.493 36.396 57.246-24.214 11.74h-91.51l-23.409-11.349zm-61.805 18.764v-16.162c0-4.776 3.886-8.663 8.663-8.663h8.663v33.488h-8.663c-4.777 0-8.663-3.887-8.663-8.663zm32.325 29.295v-1.16l18.335 8.89v40.693c-11.398-12.926-18.335-29.875-18.335-48.423zm73.313 88.313c10.481 0 20.54-1.84 29.876-5.206v28.011c0 16.474-13.402 29.876-29.876 29.876s-29.876-13.402-29.876-29.876v-28.011c9.336 3.367 19.395 5.206 29.876 5.206zm0 85.006c-31.758 0-58.016-23.929-61.733-54.701h17.496c3.581 21.186 22.049 37.376 44.237 37.376 22.189 0 40.656-16.19 44.237-37.376h17.496c-3.717 30.772-29.975 54.701-61.733 54.701z"/></g></g></svg>